<svg width="120" height="38" viewBox="0 0 120 38" fill="none" xmlns="http://www.w3.org/2000/svg">
<path d="M0.202499 19.0337C0.202499 8.50444 8.70692 0 19.1687 0C29.698 0 38.2025 8.50444 38.2025 18.9663C38.2025 29.4956 29.698 38 19.1687 38C17.0764 38 15.119 37.6625 13.2291 37.0551C14.579 29.2256 19.5062 22.8135 26.0533 20.0462C26.8632 20.9236 28.0107 21.5311 29.2256 21.5311C31.5879 21.5311 33.4778 19.6412 33.4778 17.2789C33.4778 14.9165 31.5879 13.0266 29.2256 13.0266C26.8632 13.0266 24.9734 14.9165 24.9734 17.2789C16.6039 19.7762 9.85435 25.6483 6.41208 33.1403C5.33215 32.1954 4.31972 31.048 3.50978 29.9005C3.71226 22.611 7.28953 16.1989 12.6892 12.4192C13.4316 13.2966 14.579 13.8366 15.8615 13.8366C18.2238 13.8366 20.1137 11.9467 20.1137 9.58437C20.1137 7.22202 18.2238 5.33215 15.8615 5.33215C13.4991 5.33215 11.6092 7.22202 11.6092 9.58437C11.6092 9.71936 11.6092 9.85435 11.6092 9.92185C6.54708 11.6767 2.42984 15.1865 0 19.6412C0.202487 19.5062 0.202499 19.2362 0.202499 19.0337Z" fill="#F2CA30"/>
<path d="M113.528 24.1634V23.016C113.528 22.881 113.528 9.1119 113.528 9.1119C113.528 8.90941 113.46 8.84192 113.258 8.84192H109.883C109.68 8.84192 109.613 8.90941 109.613 9.1119V25.2433C109.613 28.1457 110.76 28.6181 113.325 28.6181C113.393 28.6181 113.46 28.6181 113.528 28.5506C113.595 28.4831 113.595 28.3481 113.595 28.3481L113.528 24.1634Z" fill="white"/>
<path d="M51.7691 24.3659V23.2185C51.7691 23.0835 51.7691 9.31442 51.7691 9.31442C51.7691 9.11193 51.7016 9.04443 51.4991 9.04443H48.1244C47.9219 9.04443 47.8544 9.11193 47.8544 9.31442V25.4459C47.8544 28.3482 49.0018 28.8206 51.5666 28.8206C51.6341 28.8206 51.7016 28.8206 51.7691 28.7531C51.8366 28.6856 51.8366 28.5506 51.8366 28.5506L51.7691 24.3659Z" fill="white"/>
<path d="M62.0959 28.6856C61.8934 28.6856 61.8259 28.6181 61.8259 28.4156V17.8188C61.8259 17.6838 61.7584 17.6838 61.6909 17.6838H60.8135C60.611 17.6838 60.5435 17.6163 60.5435 17.4139V15.0515C60.5435 14.849 60.611 14.7815 60.8135 14.7815H61.6909C61.8259 14.7815 61.8259 14.714 61.8259 14.579V13.5666C61.8259 10.2593 63.3783 8.84192 66.6181 8.84192H68.778C68.9804 8.84192 69.048 8.90941 69.048 9.1119V11.6767C69.048 11.8792 68.9804 11.9467 68.778 11.9467H67.3606C66.1457 11.9467 65.8082 12.2842 65.8082 13.4316V14.579C65.8082 14.714 65.8757 14.7815 66.0107 14.7815H67.833C68.0355 14.7815 68.103 14.849 68.103 15.0515V17.4139C68.103 17.6163 68.0355 17.6838 67.833 17.6838H66.0107C65.8757 17.6838 65.8082 17.7513 65.8082 17.8188V28.4156C65.8082 28.6181 65.7407 28.6856 65.5382 28.6856H62.0959Z" fill="white"/>
<path d="M54.7389 12.0142C54.5364 12.0142 54.4689 11.9467 54.4689 11.7442V9.24685C54.4689 9.04436 54.5364 8.97687 54.7389 8.97687H58.1137C58.3161 8.97687 58.3836 9.04436 58.3836 9.24685V11.7442C58.3836 11.9467 58.3161 12.0142 58.1137 12.0142H54.7389ZM54.7389 28.7531C54.5364 28.7531 54.4689 28.6856 54.4689 28.4831V15.119C54.4689 14.9165 54.5364 14.849 54.7389 14.849H58.1137C58.3161 14.849 58.3836 14.9165 58.3836 15.119V28.4831C58.3836 28.6856 58.3161 28.7531 58.1137 28.7531H54.7389Z" fill="white"/>
<path d="M83.492 24.8384C83.222 24.0285 83.087 22.9485 83.087 21.5311C83.087 20.1812 83.1545 19.1013 83.492 18.2238C84.302 15.7265 86.4618 14.3766 89.3641 14.3766C91.5915 14.3766 93.5488 15.389 94.5613 16.9414C94.6288 17.0764 94.6288 17.2114 94.4938 17.3464L92.0639 18.9663C91.9289 19.1013 91.7265 19.0338 91.659 18.8988C91.119 18.0888 90.3766 17.6839 89.4991 17.6839C88.4192 17.6839 87.6767 18.1563 87.4067 19.1688C87.2043 19.6412 87.1368 20.4512 87.1368 21.5311C87.1368 22.611 87.2043 23.421 87.4067 23.8935C87.7442 24.9059 88.4192 25.3784 89.4991 25.3784C90.3766 25.3784 91.119 24.9734 91.659 24.1634C91.794 24.0285 91.9289 23.961 92.0639 24.0959L94.4938 25.7158C94.6288 25.8508 94.6288 25.9858 94.5613 26.1208C93.5488 27.6732 91.659 28.6856 89.3641 28.6856C86.4618 28.6856 84.2345 27.3357 83.492 24.8384Z" fill="white"/>
<path d="M95.5737 24.7709C95.2363 23.826 95.1013 22.746 95.1013 21.5311C95.1013 20.2487 95.2363 19.1688 95.5062 18.2238C96.3162 15.794 98.476 14.3766 101.378 14.3766C104.348 14.3766 106.508 15.794 107.318 18.2238C107.655 19.1688 107.655 20.5862 107.655 22.4086C107.655 22.611 107.52 22.6785 107.318 22.6785H99.2185C99.0835 22.6785 99.016 22.746 99.016 22.8135C99.0835 23.0835 99.016 23.3535 99.0835 23.556C99.421 24.7709 100.433 25.3784 101.918 25.3784C102.998 25.3784 103.876 25.0409 104.416 24.6359C104.888 24.2984 104.888 24.1634 105.158 24.3659L107.25 25.8508C107.453 25.9858 107.453 26.1208 107.25 26.2558C105.833 27.8082 103.876 28.5507 101.446 28.5507C98.5435 28.6856 96.3837 27.2682 95.5737 24.7709ZM103.673 20.1137C103.808 20.1137 103.808 20.0462 103.808 19.9112C103.808 19.5737 103.741 19.2363 103.673 18.8988C103.336 17.8864 102.661 17.4139 101.446 17.4139C100.366 17.4139 99.421 17.9539 99.0835 18.8988C99.016 19.2363 98.9485 19.5737 98.9485 19.9112C98.9485 20.0462 99.016 20.1137 99.0835 20.1137H103.673Z" fill="white"/>
<path d="M69.5204 24.8383C69.183 23.8934 69.048 22.8135 69.048 21.5986C69.048 20.3161 69.1829 19.2362 69.4529 18.2913C70.2629 15.8614 72.4227 14.444 75.3251 14.444C78.2949 14.444 80.4547 15.8614 81.2647 18.2913C81.6021 19.2362 81.6021 20.6536 81.6696 22.476C81.6696 22.6785 81.5346 22.746 81.3322 22.746H73.2327C73.0977 22.746 73.0302 22.8135 73.0302 22.881C73.0302 23.151 73.0302 23.4209 73.0977 23.6234C73.4352 24.8383 74.4476 25.4458 75.9325 25.4458C77.0124 25.4458 77.8899 25.1083 78.4299 24.7034C78.9023 24.3659 78.9023 24.2309 79.1723 24.4334L81.2647 25.9183C81.4671 26.0533 81.4671 26.1883 81.2647 26.3232C79.8472 27.8756 77.8899 28.6181 75.4601 28.6181C72.4902 28.7531 70.3304 27.3357 69.5204 24.8383ZM77.6199 20.1137C77.7549 20.1137 77.8224 20.0462 77.8224 19.9112C77.8224 19.5737 77.7549 19.2362 77.6874 18.8987C77.3499 17.8863 76.675 17.4138 75.4601 17.4138C74.3801 17.4138 73.4352 17.9538 73.0977 18.8987C73.0302 19.2362 72.9627 19.5737 72.9627 19.9112C72.9627 20.0462 73.0302 20.1137 73.1652 20.1137H77.6199Z" fill="white"/>
<path d="M119.197 24.1634V23.016C119.197 22.881 119.197 9.1119 119.197 9.1119C119.197 8.90941 119.13 8.84192 118.927 8.84192H115.552C115.35 8.84192 115.282 8.90941 115.282 9.1119V25.2433C115.282 28.1457 116.43 28.6181 118.995 28.6181C119.062 28.6181 119.13 28.6181 119.197 28.5506C119.265 28.4831 119.265 28.3481 119.265 28.3481L119.197 24.1634Z" fill="white"/>
</svg>
